<?xml version="1.0" standalone="no"?>
<!DOCTYPE svg PUBLIC "-//W3C//DTD SVG 20010904//EN"
 "http://www.w3.org/TR/2001/REC-SVG-20010904/DTD/svg10.dtd">
<svg version="1.0" xmlns="http://www.w3.org/2000/svg"
 width="700.000000pt" height="700.000000pt" viewBox="0 0 700.000000 700.000000"
 preserveAspectRatio="xMidYMid meet">
<metadata>
Created by potrace 1.11, written by Peter Selinger 2001-2013
</metadata>
<g transform="translate(0.000000,700.000000) scale(0.100000,-0.100000)"
fill="#000000" stroke="none">
<path d="M3450 6185 l0 -815 55 0 55 0 0 815 0 815 -55 0 -55 0 0 -815z"/>
<path d="M3225 5364 c-821 -122 -1483 -791 -1589 -1606 l-12 -98 858 0 858 0
0 860 c0 682 -3 860 -12 859 -7 -1 -53 -7 -103 -15z"/>
<path d="M3660 4521 l0 -861 861 0 861 0 -7 63 c-28 255 -136 561 -277 781
-267 420 -689 720 -1163 831 -55 12 -122 26 -150 29 -27 4 -67 9 -87 12 l-38
6 0 -861z"/>
<path d="M0 3500 l0 -60 813 2 812 3 0 55 0 55 -812 3 -813 2 0 -60z"/>
<path d="M5380 3500 l0 -60 810 0 810 0 0 60 0 60 -810 0 -810 0 0 -60z"/>
<path d="M1624 3303 c3 -21 8 -60 12 -88 3 -27 17 -95 30 -150 175 -754 816
-1333 1587 -1435 43 -5 80 -10 83 -10 2 0 4 387 4 860 l0 860 -861 0 -861 0 6
-37z"/>
<path d="M3670 2479 l0 -850 58 6 c328 38 667 179 937 391 93 73 249 230 322
324 203 262 344 605 379 918 l7 62 -852 0 -851 0 0 -851z"/>
<path d="M3450 815 l0 -815 55 0 55 0 0 815 0 815 -55 0 -55 0 0 -815z"/>
</g>
</svg>
